<svg xmlns="http://www.w3.org/2000/svg" xmlns:xlink="http://www.w3.org/1999/xlink" viewBox="0 0 59.18 59.18"><defs><style>.cls-1{fill:url(#linear-gradient);}.cls-2{fill:url(#linear-gradient-2);}</style><linearGradient id="linear-gradient" y1="32.33" x2="53.69" y2="32.33" gradientUnits="userSpaceOnUse"><stop offset="0" stop-color="#ff8100"/><stop offset="1" stop-color="#ff00e0"/></linearGradient><linearGradient id="linear-gradient-2" x1="38.32" y1="10.43" x2="59.18" y2="10.43" xlink:href="#linear-gradient"/></defs><title>Mark</title><g id="Layer_2" data-name="Layer 2"><g id="Layer_1-2" data-name="Layer 1"><path class="cls-1" d="M28.45,6.9l-.51.33L12.83,17.1S11.06,40.87,0,58.67L23.92,34.74a.31.31,0,0,1,0-.1V27.73a3.82,3.82,0,0,1,7.63-.09,3.77,3.77,0,0,1,2.34.86,3.82,3.82,0,0,1-2.43,6.77l-6.9,0h0l-.1,0L.51,59.18c17.8-11.06,41.57-12.83,41.57-12.83l9.87-15.11.33-.51a9.64,9.64,0,0,0-1.43-11.86L40.31,8.33a9.58,9.58,0,0,0-6.82-2.84,9.68,9.68,0,0,0-5,1.41"/><path class="cls-2" d="M39,.7a2.4,2.4,0,0,0,0,3.38L55.1,20.16a2.39,2.39,0,1,0,3.38-3.38L42.4.7A2.38,2.38,0,0,0,40.71,0,2.42,2.42,0,0,0,39,.7"/></g></g></svg>